# xmcd CD database file
#
# Track frame offsets:
#	151
#	11516
#	27451
#	41514
#	57751
#	74968
#	88443
#	100486
#	112523
#	124569
#
# Disc length: 1893 seconds
#
# Revision: 1
# Processed by: cddbd v1.5.1PL0 Copyright (c) Steve Scherf et al.
# Submitted via: CDex 1.50beta10
#
DISCID=8507630a
DTITLE=Los Terrícolas y 7 Grandes Idolos de La Balada Romántica - 100 años de Musica (DIMSA)
DYEAR=2004
DGENRE=Romántico
TTITLE0=Los Terricolas - La Carta
TTITLE1=Sabú - El o Yo
TTITLE2=Angélica María - Siempre Sola
TTITLE3=Gualberto Castro - Tu Ausencia
TTITLE4=Los Terricolas - Te Juro Que Te Amo
TTITLE5=La Tropa Loca - Si Quieres Verme Llorar
TTITLE6=Sergio Esquivel - Donde Esta mi Amor
TTITLE7=Yaco Monti - Te Quiero, Te Quiero, Te Quiero
TTITLE8=Josué - Mi Linda Esposa
TTITLE9=Los Terricolas - Luto En El Alma
EXTD=YEAR: 2004
EXTT0=
EXTT1=
EXTT2=
EXTT3=
EXTT4=
EXTT5=
EXTT6=
EXTT7=
EXTT8=
EXTT9=
PLAYORDER=
